<svg width="74" height="74" viewBox="0 0 74 74" fill="none" xmlns="http://www.w3.org/2000/svg">
<path fill-rule="evenodd" clip-rule="evenodd" d="M23.7857 5.28571C23.7857 2.36649 21.4192 0 18.5 0C15.5808 0 13.2143 2.36649 13.2143 5.28571V10.5714H7.92857C3.54974 10.5714 0 14.1212 0 18.5V66.0714C0 70.4501 3.54974 74 7.92857 74H66.0714C70.4501 74 74 70.4501 74 66.0714V18.5C74 14.1212 70.4501 10.5714 66.0714 10.5714H60.7862V5.28571C60.7862 2.36649 58.4198 0 55.5005 0C52.5813 0 50.2148 2.36649 50.2148 5.28571V10.5714H23.7857V5.28571ZM31.5568 28.69C31.5568 27.5448 32.4853 26.6163 33.6305 26.6163H40.37C41.5153 26.6163 42.4437 27.5448 42.4437 28.69V36.9371H50.6908C51.8361 36.9371 52.7645 37.8655 52.7645 39.0108V45.7503C52.7645 46.8956 51.8361 47.824 50.6908 47.824H42.4437L42.4434 56.0709C42.4434 57.2163 41.515 58.145 40.3697 58.145H33.6303C32.485 58.145 31.5566 57.2163 31.5566 56.0709V47.824H23.3095C22.1642 47.824 21.2358 46.8956 21.2358 45.7503V39.0108C21.2358 37.8655 22.1642 36.9371 23.3095 36.9371H31.5568V28.69Z" fill="white"/>
</svg>
